<?xml version="1.0" encoding="UTF-8" standalone="no"?>
<!DOCTYPE svg PUBLIC "-//W3C//DTD SVG 1.1//EN"
 "http://www.w3.org/Graphics/SVG/1.1/DTD/svg11.dtd">
<!-- Generated by graphviz version 2.43.0 (0)
 -->
<!-- Title: List Pages: 1 -->
<svg width="1574pt" height="153pt"
 viewBox="0.00 0.00 1574.00 153.00" xmlns="http://www.w3.org/2000/svg" xmlns:xlink="http://www.w3.org/1999/xlink">
<g id="graph0" class="graph" transform="scale(1 1) rotate(0) translate(4 149)">
<title>List</title>
<polygon fill="#1f1f1f" stroke="transparent" points="-4,4 -4,-149 1570,-149 1570,4 -4,4"/>
<!-- elem_0 -->
<g id="node1" class="node">
<title>elem_0</title>
<polygon fill="#6e7681" stroke="transparent" points="125.5,-73 16.5,-73 16.5,0 125.5,0 125.5,-73"/>
<polygon fill="none" stroke="yellow" points="26,-46.5 26,-67.5 117,-67.5 117,-46.5 26,-46.5"/>
<text text-anchor="start" x="36.5" y="-53.3" font-family="verdana" font-size="14.00" fill="#000000">head = 0 </text>
<polygon fill="none" stroke="yellow" points="26,-25.5 26,-46.5 117,-46.5 117,-25.5 26,-25.5"/>
<text text-anchor="start" x="43.5" y="-32.3" font-family="verdana" font-size="14.00" fill="#000000">tail = 0 </text>
<polygon fill="none" stroke="yellow" points="26,-4.5 26,-25.5 117,-25.5 117,-4.5 26,-4.5"/>
<text text-anchor="start" x="29" y="-11.3" font-family="verdana" font-size="14.00" fill="#000000">free_tail = 1</text>
<polygon fill="none" stroke="yellow" points="24.5,-4 24.5,-69 117.5,-69 117.5,-4 24.5,-4"/>
</g>
<!-- elem_1 -->
<g id="node2" class="node">
<title>elem_1</title>
<polygon fill="#6e7681" stroke="transparent" points="306,-73 144,-73 144,0 306,0 306,-73"/>
<polygon fill="none" stroke="yellow" points="153,-46.5 153,-67.5 297,-67.5 297,-46.5 153,-46.5"/>
<text text-anchor="start" x="178" y="-53.3" font-family="verdana" font-size="14.00" fill="#000000">phys idx = 1 </text>
<polygon fill="none" stroke="yellow" points="153,-25.5 153,-46.5 297,-46.5 297,-25.5 153,-25.5"/>
<text text-anchor="start" x="183" y="-32.3" font-family="verdana" font-size="14.00" fill="#000000">elem = PZN</text>
<polygon fill="none" stroke="yellow" points="153,-4.5 153,-25.5 230,-25.5 230,-4.5 153,-4.5"/>
<text text-anchor="start" x="156" y="-11.3" font-family="verdana" font-size="14.00" fill="#000000">prev = &#45;1 </text>
<polygon fill="none" stroke="yellow" points="230,-4.5 230,-25.5 297,-25.5 297,-4.5 230,-4.5"/>
<text text-anchor="start" x="233" y="-11.3" font-family="verdana" font-size="14.00" fill="#000000">next = 2</text>
<polygon fill="none" stroke="yellow" points="152,-4 152,-69 298,-69 298,-4 152,-4"/>
</g>
<!-- elem_0&#45;&gt;elem_1 -->
<!-- elem_2 -->
<g id="node3" class="node">
<title>elem_2</title>
<polygon fill="#6e7681" stroke="transparent" points="486,-73 324,-73 324,0 486,0 486,-73"/>
<polygon fill="none" stroke="yellow" points="333,-46.5 333,-67.5 477,-67.5 477,-46.5 333,-46.5"/>
<text text-anchor="start" x="358" y="-53.3" font-family="verdana" font-size="14.00" fill="#000000">phys idx = 2 </text>
<polygon fill="none" stroke="yellow" points="333,-25.5 333,-46.5 477,-46.5 477,-25.5 333,-25.5"/>
<text text-anchor="start" x="363" y="-32.3" font-family="verdana" font-size="14.00" fill="#000000">elem = PZN</text>
<polygon fill="none" stroke="yellow" points="333,-4.5 333,-25.5 410,-25.5 410,-4.5 333,-4.5"/>
<text text-anchor="start" x="336" y="-11.3" font-family="verdana" font-size="14.00" fill="#000000">prev = &#45;1 </text>
<polygon fill="none" stroke="yellow" points="410,-4.5 410,-25.5 477,-25.5 477,-4.5 410,-4.5"/>
<text text-anchor="start" x="413" y="-11.3" font-family="verdana" font-size="14.00" fill="#000000">next = 3</text>
<polygon fill="none" stroke="yellow" points="332,-4 332,-69 478,-69 478,-4 332,-4"/>
</g>
<!-- elem_1&#45;&gt;elem_2 -->
<!-- elem_1&#45;&gt;elem_2 -->
<g id="edge9" class="edge">
<title>elem_1&#45;&gt;elem_2</title>
<path fill="none" stroke="yellow" d="M306.05,-24C306.05,-24 313.74,-24 313.74,-24"/>
<polygon fill="yellow" stroke="yellow" points="313.74,-27.5 323.74,-24 313.74,-20.5 313.74,-27.5"/>
</g>
<!-- elem_3 -->
<g id="node4" class="node">
<title>elem_3</title>
<polygon fill="#6e7681" stroke="transparent" points="666,-73 504,-73 504,0 666,0 666,-73"/>
<polygon fill="none" stroke="yellow" points="513,-46.5 513,-67.5 657,-67.5 657,-46.5 513,-46.5"/>
<text text-anchor="start" x="538" y="-53.3" font-family="verdana" font-size="14.00" fill="#000000">phys idx = 3 </text>
<polygon fill="none" stroke="yellow" points="513,-25.5 513,-46.5 657,-46.5 657,-25.5 513,-25.5"/>
<text text-anchor="start" x="543" y="-32.3" font-family="verdana" font-size="14.00" fill="#000000">elem = PZN</text>
<polygon fill="none" stroke="yellow" points="513,-4.5 513,-25.5 590,-25.5 590,-4.5 513,-4.5"/>
<text text-anchor="start" x="516" y="-11.3" font-family="verdana" font-size="14.00" fill="#000000">prev = &#45;1 </text>
<polygon fill="none" stroke="yellow" points="590,-4.5 590,-25.5 657,-25.5 657,-4.5 590,-4.5"/>
<text text-anchor="start" x="593" y="-11.3" font-family="verdana" font-size="14.00" fill="#000000">next = 4</text>
<polygon fill="none" stroke="yellow" points="512,-4 512,-69 658,-69 658,-4 512,-4"/>
</g>
<!-- elem_2&#45;&gt;elem_3 -->
<!-- elem_2&#45;&gt;elem_3 -->
<g id="edge10" class="edge">
<title>elem_2&#45;&gt;elem_3</title>
<path fill="none" stroke="yellow" d="M486.05,-24C486.05,-24 493.74,-24 493.74,-24"/>
<polygon fill="yellow" stroke="yellow" points="493.74,-27.5 503.74,-24 493.74,-20.5 493.74,-27.5"/>
</g>
<!-- elem_4 -->
<g id="node5" class="node">
<title>elem_4</title>
<polygon fill="#6e7681" stroke="transparent" points="846,-73 684,-73 684,0 846,0 846,-73"/>
<polygon fill="none" stroke="yellow" points="693,-46.5 693,-67.5 837,-67.5 837,-46.5 693,-46.5"/>
<text text-anchor="start" x="718" y="-53.3" font-family="verdana" font-size="14.00" fill="#000000">phys idx = 4 </text>
<polygon fill="none" stroke="yellow" points="693,-25.5 693,-46.5 837,-46.5 837,-25.5 693,-25.5"/>
<text text-anchor="start" x="723" y="-32.3" font-family="verdana" font-size="14.00" fill="#000000">elem = PZN</text>
<polygon fill="none" stroke="yellow" points="693,-4.5 693,-25.5 770,-25.5 770,-4.5 693,-4.5"/>
<text text-anchor="start" x="696" y="-11.3" font-family="verdana" font-size="14.00" fill="#000000">prev = &#45;1 </text>
<polygon fill="none" stroke="yellow" points="770,-4.5 770,-25.5 837,-25.5 837,-4.5 770,-4.5"/>
<text text-anchor="start" x="773" y="-11.3" font-family="verdana" font-size="14.00" fill="#000000">next = 5</text>
<polygon fill="none" stroke="yellow" points="692,-4 692,-69 838,-69 838,-4 692,-4"/>
</g>
<!-- elem_3&#45;&gt;elem_4 -->
<!-- elem_3&#45;&gt;elem_4 -->
<g id="edge11" class="edge">
<title>elem_3&#45;&gt;elem_4</title>
<path fill="none" stroke="yellow" d="M666.05,-24C666.05,-24 673.74,-24 673.74,-24"/>
<polygon fill="yellow" stroke="yellow" points="673.74,-27.5 683.74,-24 673.74,-20.5 673.74,-27.5"/>
</g>
<!-- elem_5 -->
<g id="node6" class="node">
<title>elem_5</title>
<polygon fill="#6e7681" stroke="transparent" points="1026,-73 864,-73 864,0 1026,0 1026,-73"/>
<polygon fill="none" stroke="yellow" points="873,-46.5 873,-67.5 1017,-67.5 1017,-46.5 873,-46.5"/>
<text text-anchor="start" x="898" y="-53.3" font-family="verdana" font-size="14.00" fill="#000000">phys idx = 5 </text>
<polygon fill="none" stroke="yellow" points="873,-25.5 873,-46.5 1017,-46.5 1017,-25.5 873,-25.5"/>
<text text-anchor="start" x="903" y="-32.3" font-family="verdana" font-size="14.00" fill="#000000">elem = PZN</text>
<polygon fill="none" stroke="yellow" points="873,-4.5 873,-25.5 950,-25.5 950,-4.5 873,-4.5"/>
<text text-anchor="start" x="876" y="-11.3" font-family="verdana" font-size="14.00" fill="#000000">prev = &#45;1 </text>
<polygon fill="none" stroke="yellow" points="950,-4.5 950,-25.5 1017,-25.5 1017,-4.5 950,-4.5"/>
<text text-anchor="start" x="953" y="-11.3" font-family="verdana" font-size="14.00" fill="#000000">next = 6</text>
<polygon fill="none" stroke="yellow" points="872,-4 872,-69 1018,-69 1018,-4 872,-4"/>
</g>
<!-- elem_4&#45;&gt;elem_5 -->
<!-- elem_4&#45;&gt;elem_5 -->
<g id="edge12" class="edge">
<title>elem_4&#45;&gt;elem_5</title>
<path fill="none" stroke="yellow" d="M846.05,-24C846.05,-24 853.74,-24 853.74,-24"/>
<polygon fill="yellow" stroke="yellow" points="853.74,-27.5 863.74,-24 853.74,-20.5 853.74,-27.5"/>
</g>
<!-- elem_6 -->
<g id="node7" class="node">
<title>elem_6</title>
<polygon fill="#6e7681" stroke="transparent" points="1206,-73 1044,-73 1044,0 1206,0 1206,-73"/>
<polygon fill="none" stroke="yellow" points="1053,-46.5 1053,-67.5 1197,-67.5 1197,-46.5 1053,-46.5"/>
<text text-anchor="start" x="1078" y="-53.3" font-family="verdana" font-size="14.00" fill="#000000">phys idx = 6 </text>
<polygon fill="none" stroke="yellow" points="1053,-25.5 1053,-46.5 1197,-46.5 1197,-25.5 1053,-25.5"/>
<text text-anchor="start" x="1083" y="-32.3" font-family="verdana" font-size="14.00" fill="#000000">elem = PZN</text>
<polygon fill="none" stroke="yellow" points="1053,-4.5 1053,-25.5 1130,-25.5 1130,-4.5 1053,-4.5"/>
<text text-anchor="start" x="1056" y="-11.3" font-family="verdana" font-size="14.00" fill="#000000">prev = &#45;1 </text>
<polygon fill="none" stroke="yellow" points="1130,-4.5 1130,-25.5 1197,-25.5 1197,-4.5 1130,-4.5"/>
<text text-anchor="start" x="1133" y="-11.3" font-family="verdana" font-size="14.00" fill="#000000">next = 7</text>
<polygon fill="none" stroke="yellow" points="1052,-4 1052,-69 1198,-69 1198,-4 1052,-4"/>
</g>
<!-- elem_5&#45;&gt;elem_6 -->
<!-- elem_5&#45;&gt;elem_6 -->
<g id="edge13" class="edge">
<title>elem_5&#45;&gt;elem_6</title>
<path fill="none" stroke="yellow" d="M1026.05,-24C1026.05,-24 1033.74,-24 1033.74,-24"/>
<polygon fill="yellow" stroke="yellow" points="1033.74,-27.5 1043.74,-24 1033.74,-20.5 1033.74,-27.5"/>
</g>
<!-- elem_7 -->
<g id="node8" class="node">
<title>elem_7</title>
<polygon fill="#6e7681" stroke="transparent" points="1386,-73 1224,-73 1224,0 1386,0 1386,-73"/>
<polygon fill="none" stroke="yellow" points="1233,-46.5 1233,-67.5 1377,-67.5 1377,-46.5 1233,-46.5"/>
<text text-anchor="start" x="1258" y="-53.3" font-family="verdana" font-size="14.00" fill="#000000">phys idx = 7 </text>
<polygon fill="none" stroke="yellow" points="1233,-25.5 1233,-46.5 1377,-46.5 1377,-25.5 1233,-25.5"/>
<text text-anchor="start" x="1263" y="-32.3" font-family="verdana" font-size="14.00" fill="#000000">elem = PZN</text>
<polygon fill="none" stroke="yellow" points="1233,-4.5 1233,-25.5 1310,-25.5 1310,-4.5 1233,-4.5"/>
<text text-anchor="start" x="1236" y="-11.3" font-family="verdana" font-size="14.00" fill="#000000">prev = &#45;1 </text>
<polygon fill="none" stroke="yellow" points="1310,-4.5 1310,-25.5 1377,-25.5 1377,-4.5 1310,-4.5"/>
<text text-anchor="start" x="1313" y="-11.3" font-family="verdana" font-size="14.00" fill="#000000">next = 8</text>
<polygon fill="none" stroke="yellow" points="1232,-4 1232,-69 1378,-69 1378,-4 1232,-4"/>
</g>
<!-- elem_6&#45;&gt;elem_7 -->
<!-- elem_6&#45;&gt;elem_7 -->
<g id="edge14" class="edge">
<title>elem_6&#45;&gt;elem_7</title>
<path fill="none" stroke="yellow" d="M1206.05,-24C1206.05,-24 1213.74,-24 1213.74,-24"/>
<polygon fill="yellow" stroke="yellow" points="1213.74,-27.5 1223.74,-24 1213.74,-20.5 1213.74,-27.5"/>
</g>
<!-- elem_8 -->
<g id="node9" class="node">
<title>elem_8</title>
<polygon fill="#6e7681" stroke="transparent" points="1566,-73 1404,-73 1404,0 1566,0 1566,-73"/>
<polygon fill="none" stroke="yellow" points="1413,-46.5 1413,-67.5 1557,-67.5 1557,-46.5 1413,-46.5"/>
<text text-anchor="start" x="1438" y="-53.3" font-family="verdana" font-size="14.00" fill="#000000">phys idx = 8 </text>
<polygon fill="none" stroke="yellow" points="1413,-25.5 1413,-46.5 1557,-46.5 1557,-25.5 1413,-25.5"/>
<text text-anchor="start" x="1443" y="-32.3" font-family="verdana" font-size="14.00" fill="#000000">elem = PZN</text>
<polygon fill="none" stroke="yellow" points="1413,-4.5 1413,-25.5 1490,-25.5 1490,-4.5 1413,-4.5"/>
<text text-anchor="start" x="1416" y="-11.3" font-family="verdana" font-size="14.00" fill="#000000">prev = &#45;1 </text>
<polygon fill="none" stroke="yellow" points="1490,-4.5 1490,-25.5 1557,-25.5 1557,-4.5 1490,-4.5"/>
<text text-anchor="start" x="1493" y="-11.3" font-family="verdana" font-size="14.00" fill="#000000">next = 0</text>
<polygon fill="none" stroke="yellow" points="1412,-4 1412,-69 1558,-69 1558,-4 1412,-4"/>
</g>
<!-- elem_7&#45;&gt;elem_8 -->
<!-- elem_7&#45;&gt;elem_8 -->
<g id="edge15" class="edge">
<title>elem_7&#45;&gt;elem_8</title>
<path fill="none" stroke="yellow" d="M1386.05,-24C1386.05,-24 1393.74,-24 1393.74,-24"/>
<polygon fill="yellow" stroke="yellow" points="1393.74,-27.5 1403.74,-24 1393.74,-20.5 1393.74,-27.5"/>
</g>
<!-- head -->
<g id="node10" class="node">
<title>head</title>
<polygon fill="#7293ba" stroke="yellow" points="56,-145 0,-145 0,-109 56,-109 56,-145"/>
<text text-anchor="middle" x="28" y="-123.3" font-family="verdana" font-size="14.00" fill="#000000">HEAD</text>
</g>
<!-- head&#45;&gt;elem_0 -->
<g id="edge16" class="edge">
<title>head&#45;&gt;elem_0</title>
<path fill="none" stroke="yellow" d="M36.25,-108.69C36.25,-108.69 36.25,-83.11 36.25,-83.11"/>
<polygon fill="yellow" stroke="yellow" points="39.75,-83.11 36.25,-73.11 32.75,-83.11 39.75,-83.11"/>
</g>
<!-- tail -->
<g id="node11" class="node">
<title>tail</title>
<polygon fill="#7293ba" stroke="yellow" points="128,-145 74,-145 74,-109 128,-109 128,-145"/>
<text text-anchor="middle" x="101" y="-123.3" font-family="verdana" font-size="14.00" fill="#000000">TAIL</text>
</g>
<!-- tail&#45;&gt;elem_0 -->
<g id="edge17" class="edge">
<title>tail&#45;&gt;elem_0</title>
<path fill="none" stroke="yellow" d="M99.75,-108.69C99.75,-108.69 99.75,-83.11 99.75,-83.11"/>
<polygon fill="yellow" stroke="yellow" points="103.25,-83.11 99.75,-73.11 96.25,-83.11 103.25,-83.11"/>
</g>
<!-- free_head -->
<g id="node12" class="node">
<title>free_head</title>
<polygon fill="#7293ba" stroke="yellow" points="274.5,-145 175.5,-145 175.5,-109 274.5,-109 274.5,-145"/>
<text text-anchor="middle" x="225" y="-123.3" font-family="verdana" font-size="14.00" fill="#000000">FREE_HEAD</text>
</g>
<!-- free_head&#45;&gt;elem_1 -->
<g id="edge18" class="edge">
<title>free_head&#45;&gt;elem_1</title>
<path fill="none" stroke="yellow" d="M225,-108.69C225,-108.69 225,-83.11 225,-83.11"/>
<polygon fill="yellow" stroke="yellow" points="228.5,-83.11 225,-73.11 221.5,-83.11 228.5,-83.11"/>
</g>
</g>
</svg>
