<?xml version="1.0" encoding="UTF-8" standalone="no"?>
<!DOCTYPE svg PUBLIC "-//W3C//DTD SVG 1.1//EN"
 "http://www.w3.org/Graphics/SVG/1.1/DTD/svg11.dtd">
<!-- Generated by graphviz version 2.43.0 (0)
 -->
<!-- Title: List Pages: 1 -->
<svg width="1543pt" height="153pt"
 viewBox="0.00 0.00 1542.50 153.00" xmlns="http://www.w3.org/2000/svg" xmlns:xlink="http://www.w3.org/1999/xlink">
<g id="graph0" class="graph" transform="scale(1 1) rotate(0) translate(4 149)">
<title>List</title>
<polygon fill="#1f1f1f" stroke="transparent" points="-4,4 -4,-149 1538.5,-149 1538.5,4 -4,4"/>
<!-- elem_0 -->
<g id="node1" class="node">
<title>elem_0</title>
<polygon fill="#6e7681" stroke="transparent" points="109,-73 0,-73 0,0 109,0 109,-73"/>
<polygon fill="none" stroke="yellow" points="9.5,-46.5 9.5,-67.5 100.5,-67.5 100.5,-46.5 9.5,-46.5"/>
<text text-anchor="start" x="20" y="-53.3" font-family="verdana" font-size="14.00" fill="#000000">head = 1 </text>
<polygon fill="none" stroke="yellow" points="9.5,-25.5 9.5,-46.5 100.5,-46.5 100.5,-25.5 9.5,-25.5"/>
<text text-anchor="start" x="27" y="-32.3" font-family="verdana" font-size="14.00" fill="#000000">tail = 3 </text>
<polygon fill="none" stroke="yellow" points="9.5,-4.5 9.5,-25.5 100.5,-25.5 100.5,-4.5 9.5,-4.5"/>
<text text-anchor="start" x="12.5" y="-11.3" font-family="verdana" font-size="14.00" fill="#000000">free_tail = 4</text>
<polygon fill="none" stroke="yellow" points="8,-4 8,-69 101,-69 101,-4 8,-4"/>
</g>
<!-- elem_1 -->
<g id="node2" class="node">
<title>elem_1</title>
<polygon fill="#6e7681" stroke="transparent" points="284,-73 127,-73 127,0 284,0 284,-73"/>
<polygon fill="none" stroke="white" points="136.5,-46.5 136.5,-67.5 275.5,-67.5 275.5,-46.5 136.5,-46.5"/>
<text text-anchor="start" x="159" y="-53.3" font-family="verdana" font-size="14.00" fill="#000000">phys idx = 1 </text>
<polygon fill="none" stroke="white" points="136.5,-25.5 136.5,-46.5 275.5,-46.5 275.5,-25.5 136.5,-25.5"/>
<text text-anchor="start" x="174" y="-32.3" font-family="verdana" font-size="14.00" fill="#000000">elem = 0</text>
<polygon fill="none" stroke="white" points="136.5,-4.5 136.5,-25.5 208.5,-25.5 208.5,-4.5 136.5,-4.5"/>
<text text-anchor="start" x="139.5" y="-11.3" font-family="verdana" font-size="14.00" fill="#000000">prev = 0 </text>
<polygon fill="none" stroke="white" points="208.5,-4.5 208.5,-25.5 275.5,-25.5 275.5,-4.5 208.5,-4.5"/>
<text text-anchor="start" x="211.5" y="-11.3" font-family="verdana" font-size="14.00" fill="#000000">next = 2</text>
<polygon fill="none" stroke="white" points="135,-4 135,-69 276,-69 276,-4 135,-4"/>
</g>
<!-- elem_0&#45;&gt;elem_1 -->
<!-- elem_2 -->
<g id="node3" class="node">
<title>elem_2</title>
<polygon fill="#6e7681" stroke="transparent" points="459,-73 302,-73 302,0 459,0 459,-73"/>
<polygon fill="none" stroke="white" points="311.5,-46.5 311.5,-67.5 450.5,-67.5 450.5,-46.5 311.5,-46.5"/>
<text text-anchor="start" x="334" y="-53.3" font-family="verdana" font-size="14.00" fill="#000000">phys idx = 2 </text>
<polygon fill="none" stroke="white" points="311.5,-25.5 311.5,-46.5 450.5,-46.5 450.5,-25.5 311.5,-25.5"/>
<text text-anchor="start" x="344.5" y="-32.3" font-family="verdana" font-size="14.00" fill="#000000">elem = 10</text>
<polygon fill="none" stroke="white" points="311.5,-4.5 311.5,-25.5 383.5,-25.5 383.5,-4.5 311.5,-4.5"/>
<text text-anchor="start" x="314.5" y="-11.3" font-family="verdana" font-size="14.00" fill="#000000">prev = 1 </text>
<polygon fill="none" stroke="white" points="383.5,-4.5 383.5,-25.5 450.5,-25.5 450.5,-4.5 383.5,-4.5"/>
<text text-anchor="start" x="386.5" y="-11.3" font-family="verdana" font-size="14.00" fill="#000000">next = 3</text>
<polygon fill="none" stroke="white" points="310,-4 310,-69 451,-69 451,-4 310,-4"/>
</g>
<!-- elem_1&#45;&gt;elem_2 -->
<!-- elem_1&#45;&gt;elem_2 -->
<g id="edge9" class="edge">
<title>elem_1&#45;&gt;elem_2</title>
<path fill="none" stroke="green" d="M284.04,-36C284.04,-36 291.82,-36 291.82,-36"/>
<polygon fill="green" stroke="green" points="291.82,-39.5 301.82,-36 291.82,-32.5 291.82,-39.5"/>
</g>
<!-- elem_2&#45;&gt;elem_1 -->
<g id="edge11" class="edge">
<title>elem_2&#45;&gt;elem_1</title>
<path fill="none" stroke="blue" d="M301.96,-18C301.96,-18 294.18,-18 294.18,-18"/>
<polygon fill="blue" stroke="blue" points="294.18,-14.5 284.18,-18 294.18,-21.5 294.18,-14.5"/>
</g>
<!-- elem_3 -->
<g id="node4" class="node">
<title>elem_3</title>
<polygon fill="#6e7681" stroke="transparent" points="634,-73 477,-73 477,0 634,0 634,-73"/>
<polygon fill="none" stroke="white" points="486.5,-46.5 486.5,-67.5 625.5,-67.5 625.5,-46.5 486.5,-46.5"/>
<text text-anchor="start" x="509" y="-53.3" font-family="verdana" font-size="14.00" fill="#000000">phys idx = 3 </text>
<polygon fill="none" stroke="white" points="486.5,-25.5 486.5,-46.5 625.5,-46.5 625.5,-25.5 486.5,-25.5"/>
<text text-anchor="start" x="519.5" y="-32.3" font-family="verdana" font-size="14.00" fill="#000000">elem = 20</text>
<polygon fill="none" stroke="white" points="486.5,-4.5 486.5,-25.5 558.5,-25.5 558.5,-4.5 486.5,-4.5"/>
<text text-anchor="start" x="489.5" y="-11.3" font-family="verdana" font-size="14.00" fill="#000000">prev = 2 </text>
<polygon fill="none" stroke="white" points="558.5,-4.5 558.5,-25.5 625.5,-25.5 625.5,-4.5 558.5,-4.5"/>
<text text-anchor="start" x="561.5" y="-11.3" font-family="verdana" font-size="14.00" fill="#000000">next = 0</text>
<polygon fill="none" stroke="white" points="485,-4 485,-69 626,-69 626,-4 485,-4"/>
</g>
<!-- elem_2&#45;&gt;elem_3 -->
<!-- elem_2&#45;&gt;elem_3 -->
<g id="edge10" class="edge">
<title>elem_2&#45;&gt;elem_3</title>
<path fill="none" stroke="green" d="M459.04,-36C459.04,-36 466.82,-36 466.82,-36"/>
<polygon fill="green" stroke="green" points="466.82,-39.5 476.82,-36 466.82,-32.5 466.82,-39.5"/>
</g>
<!-- elem_3&#45;&gt;elem_2 -->
<g id="edge12" class="edge">
<title>elem_3&#45;&gt;elem_2</title>
<path fill="none" stroke="blue" d="M476.96,-18C476.96,-18 469.18,-18 469.18,-18"/>
<polygon fill="blue" stroke="blue" points="469.18,-14.5 459.18,-18 469.18,-21.5 469.18,-14.5"/>
</g>
<!-- elem_4 -->
<g id="node5" class="node">
<title>elem_4</title>
<polygon fill="#6e7681" stroke="transparent" points="814.5,-73 652.5,-73 652.5,0 814.5,0 814.5,-73"/>
<polygon fill="none" stroke="yellow" points="661.5,-46.5 661.5,-67.5 805.5,-67.5 805.5,-46.5 661.5,-46.5"/>
<text text-anchor="start" x="686.5" y="-53.3" font-family="verdana" font-size="14.00" fill="#000000">phys idx = 4 </text>
<polygon fill="none" stroke="yellow" points="661.5,-25.5 661.5,-46.5 805.5,-46.5 805.5,-25.5 661.5,-25.5"/>
<text text-anchor="start" x="691.5" y="-32.3" font-family="verdana" font-size="14.00" fill="#000000">elem = PZN</text>
<polygon fill="none" stroke="yellow" points="661.5,-4.5 661.5,-25.5 738.5,-25.5 738.5,-4.5 661.5,-4.5"/>
<text text-anchor="start" x="664.5" y="-11.3" font-family="verdana" font-size="14.00" fill="#000000">prev = &#45;1 </text>
<polygon fill="none" stroke="yellow" points="738.5,-4.5 738.5,-25.5 805.5,-25.5 805.5,-4.5 738.5,-4.5"/>
<text text-anchor="start" x="741.5" y="-11.3" font-family="verdana" font-size="14.00" fill="#000000">next = 5</text>
<polygon fill="none" stroke="yellow" points="660.5,-4 660.5,-69 806.5,-69 806.5,-4 660.5,-4"/>
</g>
<!-- elem_3&#45;&gt;elem_4 -->
<!-- elem_5 -->
<g id="node6" class="node">
<title>elem_5</title>
<polygon fill="#6e7681" stroke="transparent" points="994.5,-73 832.5,-73 832.5,0 994.5,0 994.5,-73"/>
<polygon fill="none" stroke="yellow" points="841.5,-46.5 841.5,-67.5 985.5,-67.5 985.5,-46.5 841.5,-46.5"/>
<text text-anchor="start" x="866.5" y="-53.3" font-family="verdana" font-size="14.00" fill="#000000">phys idx = 5 </text>
<polygon fill="none" stroke="yellow" points="841.5,-25.5 841.5,-46.5 985.5,-46.5 985.5,-25.5 841.5,-25.5"/>
<text text-anchor="start" x="871.5" y="-32.3" font-family="verdana" font-size="14.00" fill="#000000">elem = PZN</text>
<polygon fill="none" stroke="yellow" points="841.5,-4.5 841.5,-25.5 918.5,-25.5 918.5,-4.5 841.5,-4.5"/>
<text text-anchor="start" x="844.5" y="-11.3" font-family="verdana" font-size="14.00" fill="#000000">prev = &#45;1 </text>
<polygon fill="none" stroke="yellow" points="918.5,-4.5 918.5,-25.5 985.5,-25.5 985.5,-4.5 918.5,-4.5"/>
<text text-anchor="start" x="921.5" y="-11.3" font-family="verdana" font-size="14.00" fill="#000000">next = 6</text>
<polygon fill="none" stroke="yellow" points="840.5,-4 840.5,-69 986.5,-69 986.5,-4 840.5,-4"/>
</g>
<!-- elem_4&#45;&gt;elem_5 -->
<!-- elem_4&#45;&gt;elem_5 -->
<g id="edge13" class="edge">
<title>elem_4&#45;&gt;elem_5</title>
<path fill="none" stroke="yellow" d="M814.55,-24C814.55,-24 822.24,-24 822.24,-24"/>
<polygon fill="yellow" stroke="yellow" points="822.24,-27.5 832.24,-24 822.24,-20.5 822.24,-27.5"/>
</g>
<!-- elem_6 -->
<g id="node7" class="node">
<title>elem_6</title>
<polygon fill="#6e7681" stroke="transparent" points="1174.5,-73 1012.5,-73 1012.5,0 1174.5,0 1174.5,-73"/>
<polygon fill="none" stroke="yellow" points="1021.5,-46.5 1021.5,-67.5 1165.5,-67.5 1165.5,-46.5 1021.5,-46.5"/>
<text text-anchor="start" x="1046.5" y="-53.3" font-family="verdana" font-size="14.00" fill="#000000">phys idx = 6 </text>
<polygon fill="none" stroke="yellow" points="1021.5,-25.5 1021.5,-46.5 1165.5,-46.5 1165.5,-25.5 1021.5,-25.5"/>
<text text-anchor="start" x="1051.5" y="-32.3" font-family="verdana" font-size="14.00" fill="#000000">elem = PZN</text>
<polygon fill="none" stroke="yellow" points="1021.5,-4.5 1021.5,-25.5 1098.5,-25.5 1098.5,-4.5 1021.5,-4.5"/>
<text text-anchor="start" x="1024.5" y="-11.3" font-family="verdana" font-size="14.00" fill="#000000">prev = &#45;1 </text>
<polygon fill="none" stroke="yellow" points="1098.5,-4.5 1098.5,-25.5 1165.5,-25.5 1165.5,-4.5 1098.5,-4.5"/>
<text text-anchor="start" x="1101.5" y="-11.3" font-family="verdana" font-size="14.00" fill="#000000">next = 7</text>
<polygon fill="none" stroke="yellow" points="1020.5,-4 1020.5,-69 1166.5,-69 1166.5,-4 1020.5,-4"/>
</g>
<!-- elem_5&#45;&gt;elem_6 -->
<!-- elem_5&#45;&gt;elem_6 -->
<g id="edge14" class="edge">
<title>elem_5&#45;&gt;elem_6</title>
<path fill="none" stroke="yellow" d="M994.55,-24C994.55,-24 1002.24,-24 1002.24,-24"/>
<polygon fill="yellow" stroke="yellow" points="1002.24,-27.5 1012.24,-24 1002.24,-20.5 1002.24,-27.5"/>
</g>
<!-- elem_7 -->
<g id="node8" class="node">
<title>elem_7</title>
<polygon fill="#6e7681" stroke="transparent" points="1354.5,-73 1192.5,-73 1192.5,0 1354.5,0 1354.5,-73"/>
<polygon fill="none" stroke="yellow" points="1201.5,-46.5 1201.5,-67.5 1345.5,-67.5 1345.5,-46.5 1201.5,-46.5"/>
<text text-anchor="start" x="1226.5" y="-53.3" font-family="verdana" font-size="14.00" fill="#000000">phys idx = 7 </text>
<polygon fill="none" stroke="yellow" points="1201.5,-25.5 1201.5,-46.5 1345.5,-46.5 1345.5,-25.5 1201.5,-25.5"/>
<text text-anchor="start" x="1231.5" y="-32.3" font-family="verdana" font-size="14.00" fill="#000000">elem = PZN</text>
<polygon fill="none" stroke="yellow" points="1201.5,-4.5 1201.5,-25.5 1278.5,-25.5 1278.5,-4.5 1201.5,-4.5"/>
<text text-anchor="start" x="1204.5" y="-11.3" font-family="verdana" font-size="14.00" fill="#000000">prev = &#45;1 </text>
<polygon fill="none" stroke="yellow" points="1278.5,-4.5 1278.5,-25.5 1345.5,-25.5 1345.5,-4.5 1278.5,-4.5"/>
<text text-anchor="start" x="1281.5" y="-11.3" font-family="verdana" font-size="14.00" fill="#000000">next = 8</text>
<polygon fill="none" stroke="yellow" points="1200.5,-4 1200.5,-69 1346.5,-69 1346.5,-4 1200.5,-4"/>
</g>
<!-- elem_6&#45;&gt;elem_7 -->
<!-- elem_6&#45;&gt;elem_7 -->
<g id="edge15" class="edge">
<title>elem_6&#45;&gt;elem_7</title>
<path fill="none" stroke="yellow" d="M1174.55,-24C1174.55,-24 1182.24,-24 1182.24,-24"/>
<polygon fill="yellow" stroke="yellow" points="1182.24,-27.5 1192.24,-24 1182.24,-20.5 1182.24,-27.5"/>
</g>
<!-- elem_8 -->
<g id="node9" class="node">
<title>elem_8</title>
<polygon fill="#6e7681" stroke="transparent" points="1534.5,-73 1372.5,-73 1372.5,0 1534.5,0 1534.5,-73"/>
<polygon fill="none" stroke="yellow" points="1381.5,-46.5 1381.5,-67.5 1525.5,-67.5 1525.5,-46.5 1381.5,-46.5"/>
<text text-anchor="start" x="1406.5" y="-53.3" font-family="verdana" font-size="14.00" fill="#000000">phys idx = 8 </text>
<polygon fill="none" stroke="yellow" points="1381.5,-25.5 1381.5,-46.5 1525.5,-46.5 1525.5,-25.5 1381.5,-25.5"/>
<text text-anchor="start" x="1411.5" y="-32.3" font-family="verdana" font-size="14.00" fill="#000000">elem = PZN</text>
<polygon fill="none" stroke="yellow" points="1381.5,-4.5 1381.5,-25.5 1458.5,-25.5 1458.5,-4.5 1381.5,-4.5"/>
<text text-anchor="start" x="1384.5" y="-11.3" font-family="verdana" font-size="14.00" fill="#000000">prev = &#45;1 </text>
<polygon fill="none" stroke="yellow" points="1458.5,-4.5 1458.5,-25.5 1525.5,-25.5 1525.5,-4.5 1458.5,-4.5"/>
<text text-anchor="start" x="1461.5" y="-11.3" font-family="verdana" font-size="14.00" fill="#000000">next = 0</text>
<polygon fill="none" stroke="yellow" points="1380.5,-4 1380.5,-69 1526.5,-69 1526.5,-4 1380.5,-4"/>
</g>
<!-- elem_7&#45;&gt;elem_8 -->
<!-- elem_7&#45;&gt;elem_8 -->
<g id="edge16" class="edge">
<title>elem_7&#45;&gt;elem_8</title>
<path fill="none" stroke="yellow" d="M1354.55,-24C1354.55,-24 1362.24,-24 1362.24,-24"/>
<polygon fill="yellow" stroke="yellow" points="1362.24,-27.5 1372.24,-24 1362.24,-20.5 1362.24,-27.5"/>
</g>
<!-- head -->
<g id="node10" class="node">
<title>head</title>
<polygon fill="#7293ba" stroke="yellow" points="233.5,-145 177.5,-145 177.5,-109 233.5,-109 233.5,-145"/>
<text text-anchor="middle" x="205.5" y="-123.3" font-family="verdana" font-size="14.00" fill="#000000">HEAD</text>
</g>
<!-- head&#45;&gt;elem_1 -->
<g id="edge17" class="edge">
<title>head&#45;&gt;elem_1</title>
<path fill="none" stroke="yellow" d="M205.5,-108.69C205.5,-108.69 205.5,-83.11 205.5,-83.11"/>
<polygon fill="yellow" stroke="yellow" points="209,-83.11 205.5,-73.11 202,-83.11 209,-83.11"/>
</g>
<!-- tail -->
<g id="node11" class="node">
<title>tail</title>
<polygon fill="#7293ba" stroke="yellow" points="582.5,-145 528.5,-145 528.5,-109 582.5,-109 582.5,-145"/>
<text text-anchor="middle" x="555.5" y="-123.3" font-family="verdana" font-size="14.00" fill="#000000">TAIL</text>
</g>
<!-- tail&#45;&gt;elem_3 -->
<g id="edge18" class="edge">
<title>tail&#45;&gt;elem_3</title>
<path fill="none" stroke="yellow" d="M555.5,-108.69C555.5,-108.69 555.5,-83.11 555.5,-83.11"/>
<polygon fill="yellow" stroke="yellow" points="559,-83.11 555.5,-73.11 552,-83.11 559,-83.11"/>
</g>
<!-- free_head -->
<g id="node12" class="node">
<title>free_head</title>
<polygon fill="#7293ba" stroke="yellow" points="783,-145 684,-145 684,-109 783,-109 783,-145"/>
<text text-anchor="middle" x="733.5" y="-123.3" font-family="verdana" font-size="14.00" fill="#000000">FREE_HEAD</text>
</g>
<!-- free_head&#45;&gt;elem_4 -->
<g id="edge19" class="edge">
<title>free_head&#45;&gt;elem_4</title>
<path fill="none" stroke="yellow" d="M733.5,-108.69C733.5,-108.69 733.5,-83.11 733.5,-83.11"/>
<polygon fill="yellow" stroke="yellow" points="737,-83.11 733.5,-73.11 730,-83.11 737,-83.11"/>
</g>
</g>
</svg>
