<?xml version="1.0" encoding="UTF-8" standalone="no"?>
<!DOCTYPE svg PUBLIC "-//W3C//DTD SVG 1.1//EN"
 "http://www.w3.org/Graphics/SVG/1.1/DTD/svg11.dtd">
<!-- Generated by graphviz version 2.43.0 (0)
 -->
<!-- Title: List Pages: 1 -->
<svg width="1533pt" height="153pt"
 viewBox="0.00 0.00 1532.50 153.00" xmlns="http://www.w3.org/2000/svg" xmlns:xlink="http://www.w3.org/1999/xlink">
<g id="graph0" class="graph" transform="scale(1 1) rotate(0) translate(4 149)">
<title>List</title>
<polygon fill="#1f1f1f" stroke="transparent" points="-4,4 -4,-149 1528.5,-149 1528.5,4 -4,4"/>
<!-- elem_0 -->
<g id="node1" class="node">
<title>elem_0</title>
<polygon fill="#6e7681" stroke="transparent" points="109,-73 0,-73 0,0 109,0 109,-73"/>
<polygon fill="none" stroke="yellow" points="9.5,-46.5 9.5,-67.5 100.5,-67.5 100.5,-46.5 9.5,-46.5"/>
<text text-anchor="start" x="20" y="-53.3" font-family="verdana" font-size="14.00" fill="#000000">head = 1 </text>
<polygon fill="none" stroke="yellow" points="9.5,-25.5 9.5,-46.5 100.5,-46.5 100.5,-25.5 9.5,-25.5"/>
<text text-anchor="start" x="27" y="-32.3" font-family="verdana" font-size="14.00" fill="#000000">tail = 3 </text>
<polygon fill="none" stroke="yellow" points="9.5,-4.5 9.5,-25.5 100.5,-25.5 100.5,-4.5 9.5,-4.5"/>
<text text-anchor="start" x="12.5" y="-11.3" font-family="verdana" font-size="14.00" fill="#000000">free_tail = 6</text>
<polygon fill="none" stroke="yellow" points="8,-4 8,-69 101,-69 101,-4 8,-4"/>
</g>
<!-- elem_1 -->
<g id="node2" class="node">
<title>elem_1</title>
<polygon fill="#6e7681" stroke="transparent" points="284,-73 127,-73 127,0 284,0 284,-73"/>
<polygon fill="none" stroke="white" points="136.5,-46.5 136.5,-67.5 275.5,-67.5 275.5,-46.5 136.5,-46.5"/>
<text text-anchor="start" x="159" y="-53.3" font-family="verdana" font-size="14.00" fill="#000000">phys idx = 1 </text>
<polygon fill="none" stroke="white" points="136.5,-25.5 136.5,-46.5 275.5,-46.5 275.5,-25.5 136.5,-25.5"/>
<text text-anchor="start" x="174" y="-32.3" font-family="verdana" font-size="14.00" fill="#000000">elem = 0</text>
<polygon fill="none" stroke="white" points="136.5,-4.5 136.5,-25.5 208.5,-25.5 208.5,-4.5 136.5,-4.5"/>
<text text-anchor="start" x="139.5" y="-11.3" font-family="verdana" font-size="14.00" fill="#000000">prev = 0 </text>
<polygon fill="none" stroke="white" points="208.5,-4.5 208.5,-25.5 275.5,-25.5 275.5,-4.5 208.5,-4.5"/>
<text text-anchor="start" x="211.5" y="-11.3" font-family="verdana" font-size="14.00" fill="#000000">next = 2</text>
<polygon fill="none" stroke="white" points="135,-4 135,-69 276,-69 276,-4 135,-4"/>
</g>
<!-- elem_0&#45;&gt;elem_1 -->
<!-- elem_2 -->
<g id="node3" class="node">
<title>elem_2</title>
<polygon fill="#6e7681" stroke="transparent" points="459,-73 302,-73 302,0 459,0 459,-73"/>
<polygon fill="none" stroke="white" points="311.5,-46.5 311.5,-67.5 450.5,-67.5 450.5,-46.5 311.5,-46.5"/>
<text text-anchor="start" x="334" y="-53.3" font-family="verdana" font-size="14.00" fill="#000000">phys idx = 2 </text>
<polygon fill="none" stroke="white" points="311.5,-25.5 311.5,-46.5 450.5,-46.5 450.5,-25.5 311.5,-25.5"/>
<text text-anchor="start" x="344.5" y="-32.3" font-family="verdana" font-size="14.00" fill="#000000">elem = 10</text>
<polygon fill="none" stroke="white" points="311.5,-4.5 311.5,-25.5 383.5,-25.5 383.5,-4.5 311.5,-4.5"/>
<text text-anchor="start" x="314.5" y="-11.3" font-family="verdana" font-size="14.00" fill="#000000">prev = 1 </text>
<polygon fill="none" stroke="white" points="383.5,-4.5 383.5,-25.5 450.5,-25.5 450.5,-4.5 383.5,-4.5"/>
<text text-anchor="start" x="386.5" y="-11.3" font-family="verdana" font-size="14.00" fill="#000000">next = 5</text>
<polygon fill="none" stroke="white" points="310,-4 310,-69 451,-69 451,-4 310,-4"/>
</g>
<!-- elem_1&#45;&gt;elem_2 -->
<!-- elem_1&#45;&gt;elem_2 -->
<g id="edge9" class="edge">
<title>elem_1&#45;&gt;elem_2</title>
<path fill="none" stroke="green" d="M284.04,-36C284.04,-36 291.82,-36 291.82,-36"/>
<polygon fill="green" stroke="green" points="291.82,-39.5 301.82,-36 291.82,-32.5 291.82,-39.5"/>
</g>
<!-- elem_2&#45;&gt;elem_1 -->
<g id="edge11" class="edge">
<title>elem_2&#45;&gt;elem_1</title>
<path fill="none" stroke="blue" d="M301.96,-18C301.96,-18 294.18,-18 294.18,-18"/>
<polygon fill="blue" stroke="blue" points="294.18,-14.5 284.18,-18 294.18,-21.5 294.18,-14.5"/>
</g>
<!-- elem_3 -->
<g id="node4" class="node">
<title>elem_3</title>
<polygon fill="#6e7681" stroke="transparent" points="634,-73 477,-73 477,0 634,0 634,-73"/>
<polygon fill="none" stroke="white" points="486.5,-46.5 486.5,-67.5 625.5,-67.5 625.5,-46.5 486.5,-46.5"/>
<text text-anchor="start" x="509" y="-53.3" font-family="verdana" font-size="14.00" fill="#000000">phys idx = 3 </text>
<polygon fill="none" stroke="white" points="486.5,-25.5 486.5,-46.5 625.5,-46.5 625.5,-25.5 486.5,-25.5"/>
<text text-anchor="start" x="519.5" y="-32.3" font-family="verdana" font-size="14.00" fill="#000000">elem = 20</text>
<polygon fill="none" stroke="white" points="486.5,-4.5 486.5,-25.5 558.5,-25.5 558.5,-4.5 486.5,-4.5"/>
<text text-anchor="start" x="489.5" y="-11.3" font-family="verdana" font-size="14.00" fill="#000000">prev = 4 </text>
<polygon fill="none" stroke="white" points="558.5,-4.5 558.5,-25.5 625.5,-25.5 625.5,-4.5 558.5,-4.5"/>
<text text-anchor="start" x="561.5" y="-11.3" font-family="verdana" font-size="14.00" fill="#000000">next = 0</text>
<polygon fill="none" stroke="white" points="485,-4 485,-69 626,-69 626,-4 485,-4"/>
</g>
<!-- elem_2&#45;&gt;elem_3 -->
<!-- elem_5 -->
<g id="node6" class="node">
<title>elem_5</title>
<polygon fill="#6e7681" stroke="transparent" points="984,-73 827,-73 827,0 984,0 984,-73"/>
<polygon fill="none" stroke="white" points="836.5,-46.5 836.5,-67.5 975.5,-67.5 975.5,-46.5 836.5,-46.5"/>
<text text-anchor="start" x="859" y="-53.3" font-family="verdana" font-size="14.00" fill="#000000">phys idx = 5 </text>
<polygon fill="none" stroke="white" points="836.5,-25.5 836.5,-46.5 975.5,-46.5 975.5,-25.5 836.5,-25.5"/>
<text text-anchor="start" x="869.5" y="-32.3" font-family="verdana" font-size="14.00" fill="#000000">elem = 20</text>
<polygon fill="none" stroke="white" points="836.5,-4.5 836.5,-25.5 908.5,-25.5 908.5,-4.5 836.5,-4.5"/>
<text text-anchor="start" x="839.5" y="-11.3" font-family="verdana" font-size="14.00" fill="#000000">prev = 2 </text>
<polygon fill="none" stroke="white" points="908.5,-4.5 908.5,-25.5 975.5,-25.5 975.5,-4.5 908.5,-4.5"/>
<text text-anchor="start" x="911.5" y="-11.3" font-family="verdana" font-size="14.00" fill="#000000">next = 4</text>
<polygon fill="none" stroke="white" points="835,-4 835,-69 976,-69 976,-4 835,-4"/>
</g>
<!-- elem_2&#45;&gt;elem_5 -->
<g id="edge10" class="edge">
<title>elem_2&#45;&gt;elem_5</title>
<path fill="none" stroke="green" d="M406.67,-73.09C406.67,-85.83 406.67,-97 406.67,-97 406.67,-97 931.67,-97 931.67,-97 931.67,-97 931.67,-83.09 931.67,-83.09"/>
<polygon fill="green" stroke="green" points="935.17,-83.09 931.67,-73.09 928.17,-83.09 935.17,-83.09"/>
</g>
<!-- elem_4 -->
<g id="node5" class="node">
<title>elem_4</title>
<polygon fill="#6e7681" stroke="transparent" points="809,-73 652,-73 652,0 809,0 809,-73"/>
<polygon fill="none" stroke="white" points="661.5,-46.5 661.5,-67.5 800.5,-67.5 800.5,-46.5 661.5,-46.5"/>
<text text-anchor="start" x="684" y="-53.3" font-family="verdana" font-size="14.00" fill="#000000">phys idx = 4 </text>
<polygon fill="none" stroke="white" points="661.5,-25.5 661.5,-46.5 800.5,-46.5 800.5,-25.5 661.5,-25.5"/>
<text text-anchor="start" x="694.5" y="-32.3" font-family="verdana" font-size="14.00" fill="#000000">elem = 15</text>
<polygon fill="none" stroke="white" points="661.5,-4.5 661.5,-25.5 733.5,-25.5 733.5,-4.5 661.5,-4.5"/>
<text text-anchor="start" x="664.5" y="-11.3" font-family="verdana" font-size="14.00" fill="#000000">prev = 5 </text>
<polygon fill="none" stroke="white" points="733.5,-4.5 733.5,-25.5 800.5,-25.5 800.5,-4.5 733.5,-4.5"/>
<text text-anchor="start" x="736.5" y="-11.3" font-family="verdana" font-size="14.00" fill="#000000">next = 3</text>
<polygon fill="none" stroke="white" points="660,-4 660,-69 801,-69 801,-4 660,-4"/>
</g>
<!-- elem_3&#45;&gt;elem_4 -->
<!-- elem_3&#45;&gt;elem_4 -->
<g id="edge16" class="edge">
<title>elem_3&#45;&gt;elem_4</title>
<path fill="none" stroke="blue" d="M634.04,-36C634.04,-36 641.82,-36 641.82,-36"/>
<polygon fill="blue" stroke="blue" points="641.82,-39.5 651.82,-36 641.82,-32.5 641.82,-39.5"/>
</g>
<!-- elem_4&#45;&gt;elem_3 -->
<g id="edge14" class="edge">
<title>elem_4&#45;&gt;elem_3</title>
<path fill="none" stroke="green" d="M651.96,-18C651.96,-18 644.18,-18 644.18,-18"/>
<polygon fill="green" stroke="green" points="644.18,-14.5 634.18,-18 644.18,-21.5 644.18,-14.5"/>
</g>
<!-- elem_4&#45;&gt;elem_5 -->
<!-- elem_4&#45;&gt;elem_5 -->
<g id="edge15" class="edge">
<title>elem_4&#45;&gt;elem_5</title>
<path fill="none" stroke="blue" d="M809.04,-36C809.04,-36 816.82,-36 816.82,-36"/>
<polygon fill="blue" stroke="blue" points="816.82,-39.5 826.82,-36 816.82,-32.5 816.82,-39.5"/>
</g>
<!-- elem_5&#45;&gt;elem_2 -->
<g id="edge13" class="edge">
<title>elem_5&#45;&gt;elem_2</title>
<path fill="none" stroke="blue" d="M879.33,-73.26C879.33,-80.02 879.33,-85 879.33,-85 879.33,-85 354.33,-85 354.33,-85 354.33,-85 354.33,-83.26 354.33,-83.26"/>
<polygon fill="blue" stroke="blue" points="357.83,-83.26 354.33,-73.26 350.83,-83.26 357.83,-83.26"/>
</g>
<!-- elem_5&#45;&gt;elem_4 -->
<g id="edge12" class="edge">
<title>elem_5&#45;&gt;elem_4</title>
<path fill="none" stroke="green" d="M826.96,-18C826.96,-18 819.18,-18 819.18,-18"/>
<polygon fill="green" stroke="green" points="819.18,-14.5 809.18,-18 819.18,-21.5 819.18,-14.5"/>
</g>
<!-- elem_6 -->
<g id="node7" class="node">
<title>elem_6</title>
<polygon fill="#6e7681" stroke="transparent" points="1164.5,-73 1002.5,-73 1002.5,0 1164.5,0 1164.5,-73"/>
<polygon fill="none" stroke="yellow" points="1011.5,-46.5 1011.5,-67.5 1155.5,-67.5 1155.5,-46.5 1011.5,-46.5"/>
<text text-anchor="start" x="1036.5" y="-53.3" font-family="verdana" font-size="14.00" fill="#000000">phys idx = 6 </text>
<polygon fill="none" stroke="yellow" points="1011.5,-25.5 1011.5,-46.5 1155.5,-46.5 1155.5,-25.5 1011.5,-25.5"/>
<text text-anchor="start" x="1041.5" y="-32.3" font-family="verdana" font-size="14.00" fill="#000000">elem = PZN</text>
<polygon fill="none" stroke="yellow" points="1011.5,-4.5 1011.5,-25.5 1088.5,-25.5 1088.5,-4.5 1011.5,-4.5"/>
<text text-anchor="start" x="1014.5" y="-11.3" font-family="verdana" font-size="14.00" fill="#000000">prev = &#45;1 </text>
<polygon fill="none" stroke="yellow" points="1088.5,-4.5 1088.5,-25.5 1155.5,-25.5 1155.5,-4.5 1088.5,-4.5"/>
<text text-anchor="start" x="1091.5" y="-11.3" font-family="verdana" font-size="14.00" fill="#000000">next = 7</text>
<polygon fill="none" stroke="yellow" points="1010.5,-4 1010.5,-69 1156.5,-69 1156.5,-4 1010.5,-4"/>
</g>
<!-- elem_5&#45;&gt;elem_6 -->
<!-- elem_7 -->
<g id="node8" class="node">
<title>elem_7</title>
<polygon fill="#6e7681" stroke="transparent" points="1344.5,-73 1182.5,-73 1182.5,0 1344.5,0 1344.5,-73"/>
<polygon fill="none" stroke="yellow" points="1191.5,-46.5 1191.5,-67.5 1335.5,-67.5 1335.5,-46.5 1191.5,-46.5"/>
<text text-anchor="start" x="1216.5" y="-53.3" font-family="verdana" font-size="14.00" fill="#000000">phys idx = 7 </text>
<polygon fill="none" stroke="yellow" points="1191.5,-25.5 1191.5,-46.5 1335.5,-46.5 1335.5,-25.5 1191.5,-25.5"/>
<text text-anchor="start" x="1221.5" y="-32.3" font-family="verdana" font-size="14.00" fill="#000000">elem = PZN</text>
<polygon fill="none" stroke="yellow" points="1191.5,-4.5 1191.5,-25.5 1268.5,-25.5 1268.5,-4.5 1191.5,-4.5"/>
<text text-anchor="start" x="1194.5" y="-11.3" font-family="verdana" font-size="14.00" fill="#000000">prev = &#45;1 </text>
<polygon fill="none" stroke="yellow" points="1268.5,-4.5 1268.5,-25.5 1335.5,-25.5 1335.5,-4.5 1268.5,-4.5"/>
<text text-anchor="start" x="1271.5" y="-11.3" font-family="verdana" font-size="14.00" fill="#000000">next = 8</text>
<polygon fill="none" stroke="yellow" points="1190.5,-4 1190.5,-69 1336.5,-69 1336.5,-4 1190.5,-4"/>
</g>
<!-- elem_6&#45;&gt;elem_7 -->
<!-- elem_6&#45;&gt;elem_7 -->
<g id="edge17" class="edge">
<title>elem_6&#45;&gt;elem_7</title>
<path fill="none" stroke="yellow" d="M1164.55,-24C1164.55,-24 1172.24,-24 1172.24,-24"/>
<polygon fill="yellow" stroke="yellow" points="1172.24,-27.5 1182.24,-24 1172.24,-20.5 1172.24,-27.5"/>
</g>
<!-- elem_8 -->
<g id="node9" class="node">
<title>elem_8</title>
<polygon fill="#6e7681" stroke="transparent" points="1524.5,-73 1362.5,-73 1362.5,0 1524.5,0 1524.5,-73"/>
<polygon fill="none" stroke="yellow" points="1371.5,-46.5 1371.5,-67.5 1515.5,-67.5 1515.5,-46.5 1371.5,-46.5"/>
<text text-anchor="start" x="1396.5" y="-53.3" font-family="verdana" font-size="14.00" fill="#000000">phys idx = 8 </text>
<polygon fill="none" stroke="yellow" points="1371.5,-25.5 1371.5,-46.5 1515.5,-46.5 1515.5,-25.5 1371.5,-25.5"/>
<text text-anchor="start" x="1401.5" y="-32.3" font-family="verdana" font-size="14.00" fill="#000000">elem = PZN</text>
<polygon fill="none" stroke="yellow" points="1371.5,-4.5 1371.5,-25.5 1448.5,-25.5 1448.5,-4.5 1371.5,-4.5"/>
<text text-anchor="start" x="1374.5" y="-11.3" font-family="verdana" font-size="14.00" fill="#000000">prev = &#45;1 </text>
<polygon fill="none" stroke="yellow" points="1448.5,-4.5 1448.5,-25.5 1515.5,-25.5 1515.5,-4.5 1448.5,-4.5"/>
<text text-anchor="start" x="1451.5" y="-11.3" font-family="verdana" font-size="14.00" fill="#000000">next = 0</text>
<polygon fill="none" stroke="yellow" points="1370.5,-4 1370.5,-69 1516.5,-69 1516.5,-4 1370.5,-4"/>
</g>
<!-- elem_7&#45;&gt;elem_8 -->
<!-- elem_7&#45;&gt;elem_8 -->
<g id="edge18" class="edge">
<title>elem_7&#45;&gt;elem_8</title>
<path fill="none" stroke="yellow" d="M1344.55,-24C1344.55,-24 1352.24,-24 1352.24,-24"/>
<polygon fill="yellow" stroke="yellow" points="1352.24,-27.5 1362.24,-24 1352.24,-20.5 1352.24,-27.5"/>
</g>
<!-- head -->
<g id="node10" class="node">
<title>head</title>
<polygon fill="#7293ba" stroke="yellow" points="233.5,-145 177.5,-145 177.5,-109 233.5,-109 233.5,-145"/>
<text text-anchor="middle" x="205.5" y="-123.3" font-family="verdana" font-size="14.00" fill="#000000">HEAD</text>
</g>
<!-- head&#45;&gt;elem_1 -->
<g id="edge19" class="edge">
<title>head&#45;&gt;elem_1</title>
<path fill="none" stroke="yellow" d="M205.5,-108.69C205.5,-108.69 205.5,-83.11 205.5,-83.11"/>
<polygon fill="yellow" stroke="yellow" points="209,-83.11 205.5,-73.11 202,-83.11 209,-83.11"/>
</g>
<!-- tail -->
<g id="node11" class="node">
<title>tail</title>
<polygon fill="#7293ba" stroke="yellow" points="582.5,-145 528.5,-145 528.5,-109 582.5,-109 582.5,-145"/>
<text text-anchor="middle" x="555.5" y="-123.3" font-family="verdana" font-size="14.00" fill="#000000">TAIL</text>
</g>
<!-- tail&#45;&gt;elem_3 -->
<g id="edge20" class="edge">
<title>tail&#45;&gt;elem_3</title>
<path fill="none" stroke="yellow" d="M555.5,-108.69C555.5,-108.69 555.5,-83.11 555.5,-83.11"/>
<polygon fill="yellow" stroke="yellow" points="559,-83.11 555.5,-73.11 552,-83.11 559,-83.11"/>
</g>
<!-- free_head -->
<g id="node12" class="node">
<title>free_head</title>
<polygon fill="#7293ba" stroke="yellow" points="1133,-145 1034,-145 1034,-109 1133,-109 1133,-145"/>
<text text-anchor="middle" x="1083.5" y="-123.3" font-family="verdana" font-size="14.00" fill="#000000">FREE_HEAD</text>
</g>
<!-- free_head&#45;&gt;elem_6 -->
<g id="edge21" class="edge">
<title>free_head&#45;&gt;elem_6</title>
<path fill="none" stroke="yellow" d="M1083.5,-108.69C1083.5,-108.69 1083.5,-83.11 1083.5,-83.11"/>
<polygon fill="yellow" stroke="yellow" points="1087,-83.11 1083.5,-73.11 1080,-83.11 1087,-83.11"/>
</g>
</g>
</svg>
