<?xml version="1.0" encoding="UTF-8" standalone="no"?>
<!DOCTYPE svg PUBLIC "-//W3C//DTD SVG 1.1//EN"
 "http://www.w3.org/Graphics/SVG/1.1/DTD/svg11.dtd">
<!-- Generated by graphviz version 2.43.0 (0)
 -->
<!-- Title: List Pages: 1 -->
<svg width="3022pt" height="153pt"
 viewBox="0.00 0.00 3022.00 153.00" xmlns="http://www.w3.org/2000/svg" xmlns:xlink="http://www.w3.org/1999/xlink">
<g id="graph0" class="graph" transform="scale(1 1) rotate(0) translate(4 149)">
<title>List</title>
<polygon fill="#1f1f1f" stroke="transparent" points="-4,4 -4,-149 3018,-149 3018,4 -4,4"/>
<!-- elem_0 -->
<g id="node1" class="node">
<title>elem_0</title>
<polygon fill="#6e7681" stroke="transparent" points="118,-73 0,-73 0,0 118,0 118,-73"/>
<polygon fill="none" stroke="yellow" points="9,-46.5 9,-67.5 109,-67.5 109,-46.5 9,-46.5"/>
<text text-anchor="start" x="24" y="-53.3" font-family="verdana" font-size="14.00" fill="#000000">head = 1 </text>
<polygon fill="none" stroke="yellow" points="9,-25.5 9,-46.5 109,-46.5 109,-25.5 9,-25.5"/>
<text text-anchor="start" x="31" y="-32.3" font-family="verdana" font-size="14.00" fill="#000000">tail = 7 </text>
<polygon fill="none" stroke="yellow" points="9,-4.5 9,-25.5 109,-25.5 109,-4.5 9,-4.5"/>
<text text-anchor="start" x="12" y="-11.3" font-family="verdana" font-size="14.00" fill="#000000">free_tail = 11</text>
<polygon fill="none" stroke="yellow" points="8,-4 8,-69 110,-69 110,-4 8,-4"/>
</g>
<!-- elem_1 -->
<g id="node2" class="node">
<title>elem_1</title>
<polygon fill="#6e7681" stroke="transparent" points="293.5,-73 136.5,-73 136.5,0 293.5,0 293.5,-73"/>
<polygon fill="none" stroke="white" points="146,-46.5 146,-67.5 285,-67.5 285,-46.5 146,-46.5"/>
<text text-anchor="start" x="168.5" y="-53.3" font-family="verdana" font-size="14.00" fill="#000000">phys idx = 1 </text>
<polygon fill="none" stroke="white" points="146,-25.5 146,-46.5 285,-46.5 285,-25.5 146,-25.5"/>
<text text-anchor="start" x="183.5" y="-32.3" font-family="verdana" font-size="14.00" fill="#000000">elem = 0</text>
<polygon fill="none" stroke="white" points="146,-4.5 146,-25.5 218,-25.5 218,-4.5 146,-4.5"/>
<text text-anchor="start" x="149" y="-11.3" font-family="verdana" font-size="14.00" fill="#000000">prev = 0 </text>
<polygon fill="none" stroke="white" points="218,-4.5 218,-25.5 285,-25.5 285,-4.5 218,-4.5"/>
<text text-anchor="start" x="221" y="-11.3" font-family="verdana" font-size="14.00" fill="#000000">next = 2</text>
<polygon fill="none" stroke="white" points="144.5,-4 144.5,-69 285.5,-69 285.5,-4 144.5,-4"/>
</g>
<!-- elem_0&#45;&gt;elem_1 -->
<!-- elem_2 -->
<g id="node3" class="node">
<title>elem_2</title>
<polygon fill="#6e7681" stroke="transparent" points="468.5,-73 311.5,-73 311.5,0 468.5,0 468.5,-73"/>
<polygon fill="none" stroke="white" points="321,-46.5 321,-67.5 460,-67.5 460,-46.5 321,-46.5"/>
<text text-anchor="start" x="343.5" y="-53.3" font-family="verdana" font-size="14.00" fill="#000000">phys idx = 2 </text>
<polygon fill="none" stroke="white" points="321,-25.5 321,-46.5 460,-46.5 460,-25.5 321,-25.5"/>
<text text-anchor="start" x="354" y="-32.3" font-family="verdana" font-size="14.00" fill="#000000">elem = 10</text>
<polygon fill="none" stroke="white" points="321,-4.5 321,-25.5 393,-25.5 393,-4.5 321,-4.5"/>
<text text-anchor="start" x="324" y="-11.3" font-family="verdana" font-size="14.00" fill="#000000">prev = 1 </text>
<polygon fill="none" stroke="white" points="393,-4.5 393,-25.5 460,-25.5 460,-4.5 393,-4.5"/>
<text text-anchor="start" x="396" y="-11.3" font-family="verdana" font-size="14.00" fill="#000000">next = 8</text>
<polygon fill="none" stroke="white" points="319.5,-4 319.5,-69 460.5,-69 460.5,-4 319.5,-4"/>
</g>
<!-- elem_1&#45;&gt;elem_2 -->
<!-- elem_1&#45;&gt;elem_2 -->
<g id="edge17" class="edge">
<title>elem_1&#45;&gt;elem_2</title>
<path fill="none" stroke="green" d="M293.54,-36C293.54,-36 301.32,-36 301.32,-36"/>
<polygon fill="green" stroke="green" points="301.32,-39.5 311.32,-36 301.32,-32.5 301.32,-39.5"/>
</g>
<!-- elem_2&#45;&gt;elem_1 -->
<g id="edge19" class="edge">
<title>elem_2&#45;&gt;elem_1</title>
<path fill="none" stroke="blue" d="M311.46,-18C311.46,-18 303.68,-18 303.68,-18"/>
<polygon fill="blue" stroke="blue" points="303.68,-14.5 293.68,-18 303.68,-21.5 303.68,-14.5"/>
</g>
<!-- elem_3 -->
<g id="node4" class="node">
<title>elem_3</title>
<polygon fill="#6e7681" stroke="transparent" points="653,-73 487,-73 487,0 653,0 653,-73"/>
<polygon fill="none" stroke="white" points="496,-46.5 496,-67.5 644,-67.5 644,-46.5 496,-46.5"/>
<text text-anchor="start" x="523" y="-53.3" font-family="verdana" font-size="14.00" fill="#000000">phys idx = 3 </text>
<polygon fill="none" stroke="white" points="496,-25.5 496,-46.5 644,-46.5 644,-25.5 496,-25.5"/>
<text text-anchor="start" x="533.5" y="-32.3" font-family="verdana" font-size="14.00" fill="#000000">elem = 60</text>
<polygon fill="none" stroke="white" points="496,-4.5 496,-25.5 577,-25.5 577,-4.5 496,-4.5"/>
<text text-anchor="start" x="499" y="-11.3" font-family="verdana" font-size="14.00" fill="#000000">prev = 10 </text>
<polygon fill="none" stroke="white" points="577,-4.5 577,-25.5 644,-25.5 644,-4.5 577,-4.5"/>
<text text-anchor="start" x="580" y="-11.3" font-family="verdana" font-size="14.00" fill="#000000">next = 4</text>
<polygon fill="none" stroke="white" points="495,-4 495,-69 645,-69 645,-4 495,-4"/>
</g>
<!-- elem_2&#45;&gt;elem_3 -->
<!-- elem_8 -->
<g id="node9" class="node">
<title>elem_8</title>
<polygon fill="#6e7681" stroke="transparent" points="1528.5,-73 1371.5,-73 1371.5,0 1528.5,0 1528.5,-73"/>
<polygon fill="none" stroke="white" points="1381,-46.5 1381,-67.5 1520,-67.5 1520,-46.5 1381,-46.5"/>
<text text-anchor="start" x="1403.5" y="-53.3" font-family="verdana" font-size="14.00" fill="#000000">phys idx = 8 </text>
<polygon fill="none" stroke="white" points="1381,-25.5 1381,-46.5 1520,-46.5 1520,-25.5 1381,-25.5"/>
<text text-anchor="start" x="1414" y="-32.3" font-family="verdana" font-size="14.00" fill="#000000">elem = 70</text>
<polygon fill="none" stroke="white" points="1381,-4.5 1381,-25.5 1453,-25.5 1453,-4.5 1381,-4.5"/>
<text text-anchor="start" x="1384" y="-11.3" font-family="verdana" font-size="14.00" fill="#000000">prev = 2 </text>
<polygon fill="none" stroke="white" points="1453,-4.5 1453,-25.5 1520,-25.5 1520,-4.5 1453,-4.5"/>
<text text-anchor="start" x="1456" y="-11.3" font-family="verdana" font-size="14.00" fill="#000000">next = 9</text>
<polygon fill="none" stroke="white" points="1379.5,-4 1379.5,-69 1520.5,-69 1520.5,-4 1379.5,-4"/>
</g>
<!-- elem_2&#45;&gt;elem_8 -->
<g id="edge18" class="edge">
<title>elem_2&#45;&gt;elem_8</title>
<path fill="none" stroke="green" d="M416.17,-73.2C416.17,-81.03 416.17,-87 416.17,-87 416.17,-87 1476.17,-87 1476.17,-87 1476.17,-87 1476.17,-83.2 1476.17,-83.2"/>
<polygon fill="green" stroke="green" points="1479.67,-83.2 1476.17,-73.2 1472.67,-83.2 1479.67,-83.2"/>
</g>
<!-- elem_4 -->
<g id="node5" class="node">
<title>elem_4</title>
<polygon fill="#6e7681" stroke="transparent" points="828.5,-73 671.5,-73 671.5,0 828.5,0 828.5,-73"/>
<polygon fill="none" stroke="white" points="681,-46.5 681,-67.5 820,-67.5 820,-46.5 681,-46.5"/>
<text text-anchor="start" x="703.5" y="-53.3" font-family="verdana" font-size="14.00" fill="#000000">phys idx = 4 </text>
<polygon fill="none" stroke="white" points="681,-25.5 681,-46.5 820,-46.5 820,-25.5 681,-25.5"/>
<text text-anchor="start" x="714" y="-32.3" font-family="verdana" font-size="14.00" fill="#000000">elem = 50</text>
<polygon fill="none" stroke="white" points="681,-4.5 681,-25.5 753,-25.5 753,-4.5 681,-4.5"/>
<text text-anchor="start" x="684" y="-11.3" font-family="verdana" font-size="14.00" fill="#000000">prev = 3 </text>
<polygon fill="none" stroke="white" points="753,-4.5 753,-25.5 820,-25.5 820,-4.5 753,-4.5"/>
<text text-anchor="start" x="756" y="-11.3" font-family="verdana" font-size="14.00" fill="#000000">next = 5</text>
<polygon fill="none" stroke="white" points="679.5,-4 679.5,-69 820.5,-69 820.5,-4 679.5,-4"/>
</g>
<!-- elem_3&#45;&gt;elem_4 -->
<!-- elem_3&#45;&gt;elem_4 -->
<g id="edge26" class="edge">
<title>elem_3&#45;&gt;elem_4</title>
<path fill="none" stroke="green" d="M653.15,-36C653.15,-36 661.4,-36 661.4,-36"/>
<polygon fill="green" stroke="green" points="661.4,-39.5 671.4,-36 661.4,-32.5 661.4,-39.5"/>
</g>
<!-- elem_10 -->
<g id="node11" class="node">
<title>elem_10</title>
<polygon fill="#6e7681" stroke="transparent" points="1888.5,-73 1731.5,-73 1731.5,0 1888.5,0 1888.5,-73"/>
<polygon fill="none" stroke="white" points="1741,-46.5 1741,-67.5 1880,-67.5 1880,-46.5 1741,-46.5"/>
<text text-anchor="start" x="1759" y="-53.3" font-family="verdana" font-size="14.00" fill="#000000">phys idx = 10 </text>
<polygon fill="none" stroke="white" points="1741,-25.5 1741,-46.5 1880,-46.5 1880,-25.5 1741,-25.5"/>
<text text-anchor="start" x="1774" y="-32.3" font-family="verdana" font-size="14.00" fill="#000000">elem = 90</text>
<polygon fill="none" stroke="white" points="1741,-4.5 1741,-25.5 1813,-25.5 1813,-4.5 1741,-4.5"/>
<text text-anchor="start" x="1744" y="-11.3" font-family="verdana" font-size="14.00" fill="#000000">prev = 9 </text>
<polygon fill="none" stroke="white" points="1813,-4.5 1813,-25.5 1880,-25.5 1880,-4.5 1813,-4.5"/>
<text text-anchor="start" x="1816" y="-11.3" font-family="verdana" font-size="14.00" fill="#000000">next = 3</text>
<polygon fill="none" stroke="white" points="1739.5,-4 1739.5,-69 1880.5,-69 1880.5,-4 1739.5,-4"/>
</g>
<!-- elem_3&#45;&gt;elem_10 -->
<g id="edge27" class="edge">
<title>elem_3&#45;&gt;elem_10</title>
<path fill="none" stroke="blue" d="M597.67,-73.27C597.67,-87.76 597.67,-101 597.67,-101 597.67,-101 1836.17,-101 1836.17,-101 1836.17,-101 1836.17,-83.27 1836.17,-83.27"/>
<polygon fill="blue" stroke="blue" points="1839.67,-83.27 1836.17,-73.27 1832.67,-83.27 1839.67,-83.27"/>
</g>
<!-- elem_4&#45;&gt;elem_3 -->
<g id="edge29" class="edge">
<title>elem_4&#45;&gt;elem_3</title>
<path fill="none" stroke="blue" d="M671.31,-18C671.31,-18 663.05,-18 663.05,-18"/>
<polygon fill="blue" stroke="blue" points="663.05,-14.5 653.05,-18 663.05,-21.5 663.05,-14.5"/>
</g>
<!-- elem_5 -->
<g id="node6" class="node">
<title>elem_5</title>
<polygon fill="#6e7681" stroke="transparent" points="1003.5,-73 846.5,-73 846.5,0 1003.5,0 1003.5,-73"/>
<polygon fill="none" stroke="white" points="856,-46.5 856,-67.5 995,-67.5 995,-46.5 856,-46.5"/>
<text text-anchor="start" x="878.5" y="-53.3" font-family="verdana" font-size="14.00" fill="#000000">phys idx = 5 </text>
<polygon fill="none" stroke="white" points="856,-25.5 856,-46.5 995,-46.5 995,-25.5 856,-25.5"/>
<text text-anchor="start" x="889" y="-32.3" font-family="verdana" font-size="14.00" fill="#000000">elem = 20</text>
<polygon fill="none" stroke="white" points="856,-4.5 856,-25.5 928,-25.5 928,-4.5 856,-4.5"/>
<text text-anchor="start" x="859" y="-11.3" font-family="verdana" font-size="14.00" fill="#000000">prev = 4 </text>
<polygon fill="none" stroke="white" points="928,-4.5 928,-25.5 995,-25.5 995,-4.5 928,-4.5"/>
<text text-anchor="start" x="931" y="-11.3" font-family="verdana" font-size="14.00" fill="#000000">next = 6</text>
<polygon fill="none" stroke="white" points="854.5,-4 854.5,-69 995.5,-69 995.5,-4 854.5,-4"/>
</g>
<!-- elem_4&#45;&gt;elem_5 -->
<!-- elem_4&#45;&gt;elem_5 -->
<g id="edge28" class="edge">
<title>elem_4&#45;&gt;elem_5</title>
<path fill="none" stroke="green" d="M828.54,-36C828.54,-36 836.32,-36 836.32,-36"/>
<polygon fill="green" stroke="green" points="836.32,-39.5 846.32,-36 836.32,-32.5 836.32,-39.5"/>
</g>
<!-- elem_5&#45;&gt;elem_4 -->
<g id="edge31" class="edge">
<title>elem_5&#45;&gt;elem_4</title>
<path fill="none" stroke="blue" d="M846.46,-18C846.46,-18 838.68,-18 838.68,-18"/>
<polygon fill="blue" stroke="blue" points="838.68,-14.5 828.68,-18 838.68,-21.5 838.68,-14.5"/>
</g>
<!-- elem_6 -->
<g id="node7" class="node">
<title>elem_6</title>
<polygon fill="#6e7681" stroke="transparent" points="1178.5,-73 1021.5,-73 1021.5,0 1178.5,0 1178.5,-73"/>
<polygon fill="none" stroke="white" points="1031,-46.5 1031,-67.5 1170,-67.5 1170,-46.5 1031,-46.5"/>
<text text-anchor="start" x="1053.5" y="-53.3" font-family="verdana" font-size="14.00" fill="#000000">phys idx = 6 </text>
<polygon fill="none" stroke="white" points="1031,-25.5 1031,-46.5 1170,-46.5 1170,-25.5 1031,-25.5"/>
<text text-anchor="start" x="1064" y="-32.3" font-family="verdana" font-size="14.00" fill="#000000">elem = 15</text>
<polygon fill="none" stroke="white" points="1031,-4.5 1031,-25.5 1103,-25.5 1103,-4.5 1031,-4.5"/>
<text text-anchor="start" x="1034" y="-11.3" font-family="verdana" font-size="14.00" fill="#000000">prev = 5 </text>
<polygon fill="none" stroke="white" points="1103,-4.5 1103,-25.5 1170,-25.5 1170,-4.5 1103,-4.5"/>
<text text-anchor="start" x="1106" y="-11.3" font-family="verdana" font-size="14.00" fill="#000000">next = 7</text>
<polygon fill="none" stroke="white" points="1029.5,-4 1029.5,-69 1170.5,-69 1170.5,-4 1029.5,-4"/>
</g>
<!-- elem_5&#45;&gt;elem_6 -->
<!-- elem_5&#45;&gt;elem_6 -->
<g id="edge30" class="edge">
<title>elem_5&#45;&gt;elem_6</title>
<path fill="none" stroke="green" d="M1003.54,-36C1003.54,-36 1011.32,-36 1011.32,-36"/>
<polygon fill="green" stroke="green" points="1011.32,-39.5 1021.32,-36 1011.32,-32.5 1011.32,-39.5"/>
</g>
<!-- elem_6&#45;&gt;elem_5 -->
<g id="edge33" class="edge">
<title>elem_6&#45;&gt;elem_5</title>
<path fill="none" stroke="blue" d="M1021.46,-18C1021.46,-18 1013.68,-18 1013.68,-18"/>
<polygon fill="blue" stroke="blue" points="1013.68,-14.5 1003.68,-18 1013.68,-21.5 1013.68,-14.5"/>
</g>
<!-- elem_7 -->
<g id="node8" class="node">
<title>elem_7</title>
<polygon fill="#6e7681" stroke="transparent" points="1353.5,-73 1196.5,-73 1196.5,0 1353.5,0 1353.5,-73"/>
<polygon fill="none" stroke="white" points="1206,-46.5 1206,-67.5 1345,-67.5 1345,-46.5 1206,-46.5"/>
<text text-anchor="start" x="1228.5" y="-53.3" font-family="verdana" font-size="14.00" fill="#000000">phys idx = 7 </text>
<polygon fill="none" stroke="white" points="1206,-25.5 1206,-46.5 1345,-46.5 1345,-25.5 1206,-25.5"/>
<text text-anchor="start" x="1239" y="-32.3" font-family="verdana" font-size="14.00" fill="#000000">elem = 20</text>
<polygon fill="none" stroke="white" points="1206,-4.5 1206,-25.5 1278,-25.5 1278,-4.5 1206,-4.5"/>
<text text-anchor="start" x="1209" y="-11.3" font-family="verdana" font-size="14.00" fill="#000000">prev = 6 </text>
<polygon fill="none" stroke="white" points="1278,-4.5 1278,-25.5 1345,-25.5 1345,-4.5 1278,-4.5"/>
<text text-anchor="start" x="1281" y="-11.3" font-family="verdana" font-size="14.00" fill="#000000">next = 0</text>
<polygon fill="none" stroke="white" points="1204.5,-4 1204.5,-69 1345.5,-69 1345.5,-4 1204.5,-4"/>
</g>
<!-- elem_6&#45;&gt;elem_7 -->
<!-- elem_6&#45;&gt;elem_7 -->
<g id="edge32" class="edge">
<title>elem_6&#45;&gt;elem_7</title>
<path fill="none" stroke="green" d="M1178.54,-36C1178.54,-36 1186.32,-36 1186.32,-36"/>
<polygon fill="green" stroke="green" points="1186.32,-39.5 1196.32,-36 1186.32,-32.5 1186.32,-39.5"/>
</g>
<!-- elem_7&#45;&gt;elem_6 -->
<g id="edge34" class="edge">
<title>elem_7&#45;&gt;elem_6</title>
<path fill="none" stroke="blue" d="M1196.46,-18C1196.46,-18 1188.68,-18 1188.68,-18"/>
<polygon fill="blue" stroke="blue" points="1188.68,-14.5 1178.68,-18 1188.68,-21.5 1188.68,-14.5"/>
</g>
<!-- elem_7&#45;&gt;elem_8 -->
<!-- elem_8&#45;&gt;elem_2 -->
<g id="edge21" class="edge">
<title>elem_8&#45;&gt;elem_2</title>
<path fill="none" stroke="blue" d="M1423.83,-73.2C1423.83,-77.28 1423.83,-80 1423.83,-80 1423.83,-80 363.83,-80 363.83,-80 363.83,-80 363.83,-79.32 363.83,-79.32"/>
<polygon fill="blue" stroke="blue" points="367.33,-83.2 363.83,-73.2 360.33,-83.2 367.33,-83.2"/>
</g>
<!-- elem_9 -->
<g id="node10" class="node">
<title>elem_9</title>
<polygon fill="#6e7681" stroke="transparent" points="1713,-73 1547,-73 1547,0 1713,0 1713,-73"/>
<polygon fill="none" stroke="white" points="1556,-46.5 1556,-67.5 1704,-67.5 1704,-46.5 1556,-46.5"/>
<text text-anchor="start" x="1583" y="-53.3" font-family="verdana" font-size="14.00" fill="#000000">phys idx = 9 </text>
<polygon fill="none" stroke="white" points="1556,-25.5 1556,-46.5 1704,-46.5 1704,-25.5 1556,-25.5"/>
<text text-anchor="start" x="1593.5" y="-32.3" font-family="verdana" font-size="14.00" fill="#000000">elem = 80</text>
<polygon fill="none" stroke="white" points="1556,-4.5 1556,-25.5 1628,-25.5 1628,-4.5 1556,-4.5"/>
<text text-anchor="start" x="1559" y="-11.3" font-family="verdana" font-size="14.00" fill="#000000">prev = 8 </text>
<polygon fill="none" stroke="white" points="1628,-4.5 1628,-25.5 1704,-25.5 1704,-4.5 1628,-4.5"/>
<text text-anchor="start" x="1631" y="-11.3" font-family="verdana" font-size="14.00" fill="#000000">next = 10</text>
<polygon fill="none" stroke="white" points="1555,-4 1555,-69 1705,-69 1705,-4 1555,-4"/>
</g>
<!-- elem_8&#45;&gt;elem_9 -->
<!-- elem_8&#45;&gt;elem_9 -->
<g id="edge20" class="edge">
<title>elem_8&#45;&gt;elem_9</title>
<path fill="none" stroke="green" d="M1528.69,-36C1528.69,-36 1536.95,-36 1536.95,-36"/>
<polygon fill="green" stroke="green" points="1536.95,-39.5 1546.95,-36 1536.95,-32.5 1536.95,-39.5"/>
</g>
<!-- elem_9&#45;&gt;elem_8 -->
<g id="edge23" class="edge">
<title>elem_9&#45;&gt;elem_8</title>
<path fill="none" stroke="blue" d="M1546.85,-18C1546.85,-18 1538.6,-18 1538.6,-18"/>
<polygon fill="blue" stroke="blue" points="1538.6,-14.5 1528.6,-18 1538.6,-21.5 1538.6,-14.5"/>
</g>
<!-- elem_9&#45;&gt;elem_10 -->
<!-- elem_9&#45;&gt;elem_10 -->
<g id="edge22" class="edge">
<title>elem_9&#45;&gt;elem_10</title>
<path fill="none" stroke="green" d="M1713.15,-36C1713.15,-36 1721.4,-36 1721.4,-36"/>
<polygon fill="green" stroke="green" points="1721.4,-39.5 1731.4,-36 1721.4,-32.5 1721.4,-39.5"/>
</g>
<!-- elem_10&#45;&gt;elem_3 -->
<g id="edge24" class="edge">
<title>elem_10&#45;&gt;elem_3</title>
<path fill="none" stroke="green" d="M1783.83,-73.24C1783.83,-84.51 1783.83,-94 1783.83,-94 1783.83,-94 542.33,-94 542.33,-94 542.33,-94 542.33,-83.24 542.33,-83.24"/>
<polygon fill="green" stroke="green" points="545.83,-83.24 542.33,-73.24 538.83,-83.24 545.83,-83.24"/>
</g>
<!-- elem_10&#45;&gt;elem_9 -->
<g id="edge25" class="edge">
<title>elem_10&#45;&gt;elem_9</title>
<path fill="none" stroke="blue" d="M1731.31,-18C1731.31,-18 1723.05,-18 1723.05,-18"/>
<polygon fill="blue" stroke="blue" points="1723.05,-14.5 1713.05,-18 1723.05,-21.5 1723.05,-14.5"/>
</g>
<!-- elem_11 -->
<g id="node12" class="node">
<title>elem_11</title>
<polygon fill="#6e7681" stroke="transparent" points="2077.5,-73 1906.5,-73 1906.5,0 2077.5,0 2077.5,-73"/>
<polygon fill="none" stroke="yellow" points="1916,-46.5 1916,-67.5 2069,-67.5 2069,-46.5 1916,-46.5"/>
<text text-anchor="start" x="1941" y="-53.3" font-family="verdana" font-size="14.00" fill="#000000">phys idx = 11 </text>
<polygon fill="none" stroke="yellow" points="1916,-25.5 1916,-46.5 2069,-46.5 2069,-25.5 1916,-25.5"/>
<text text-anchor="start" x="1950.5" y="-32.3" font-family="verdana" font-size="14.00" fill="#000000">elem = PZN</text>
<polygon fill="none" stroke="yellow" points="1916,-4.5 1916,-25.5 1993,-25.5 1993,-4.5 1916,-4.5"/>
<text text-anchor="start" x="1919" y="-11.3" font-family="verdana" font-size="14.00" fill="#000000">prev = &#45;1 </text>
<polygon fill="none" stroke="yellow" points="1993,-4.5 1993,-25.5 2069,-25.5 2069,-4.5 1993,-4.5"/>
<text text-anchor="start" x="1996" y="-11.3" font-family="verdana" font-size="14.00" fill="#000000">next = 12</text>
<polygon fill="none" stroke="yellow" points="1914.5,-4 1914.5,-69 2069.5,-69 2069.5,-4 1914.5,-4"/>
</g>
<!-- elem_10&#45;&gt;elem_11 -->
<!-- elem_12 -->
<g id="node13" class="node">
<title>elem_12</title>
<polygon fill="#6e7681" stroke="transparent" points="2266.5,-73 2095.5,-73 2095.5,0 2266.5,0 2266.5,-73"/>
<polygon fill="none" stroke="yellow" points="2105,-46.5 2105,-67.5 2258,-67.5 2258,-46.5 2105,-46.5"/>
<text text-anchor="start" x="2130" y="-53.3" font-family="verdana" font-size="14.00" fill="#000000">phys idx = 12 </text>
<polygon fill="none" stroke="yellow" points="2105,-25.5 2105,-46.5 2258,-46.5 2258,-25.5 2105,-25.5"/>
<text text-anchor="start" x="2139.5" y="-32.3" font-family="verdana" font-size="14.00" fill="#000000">elem = PZN</text>
<polygon fill="none" stroke="yellow" points="2105,-4.5 2105,-25.5 2182,-25.5 2182,-4.5 2105,-4.5"/>
<text text-anchor="start" x="2108" y="-11.3" font-family="verdana" font-size="14.00" fill="#000000">prev = &#45;1 </text>
<polygon fill="none" stroke="yellow" points="2182,-4.5 2182,-25.5 2258,-25.5 2258,-4.5 2182,-4.5"/>
<text text-anchor="start" x="2185" y="-11.3" font-family="verdana" font-size="14.00" fill="#000000">next = 13</text>
<polygon fill="none" stroke="yellow" points="2103.5,-4 2103.5,-69 2258.5,-69 2258.5,-4 2103.5,-4"/>
</g>
<!-- elem_11&#45;&gt;elem_12 -->
<!-- elem_11&#45;&gt;elem_12 -->
<g id="edge35" class="edge">
<title>elem_11&#45;&gt;elem_12</title>
<path fill="none" stroke="yellow" d="M2077.65,-24C2077.65,-24 2085.28,-24 2085.28,-24"/>
<polygon fill="yellow" stroke="yellow" points="2085.28,-27.5 2095.28,-24 2085.28,-20.5 2085.28,-27.5"/>
</g>
<!-- elem_13 -->
<g id="node14" class="node">
<title>elem_13</title>
<polygon fill="#6e7681" stroke="transparent" points="2455.5,-73 2284.5,-73 2284.5,0 2455.5,0 2455.5,-73"/>
<polygon fill="none" stroke="yellow" points="2294,-46.5 2294,-67.5 2447,-67.5 2447,-46.5 2294,-46.5"/>
<text text-anchor="start" x="2319" y="-53.3" font-family="verdana" font-size="14.00" fill="#000000">phys idx = 13 </text>
<polygon fill="none" stroke="yellow" points="2294,-25.5 2294,-46.5 2447,-46.5 2447,-25.5 2294,-25.5"/>
<text text-anchor="start" x="2328.5" y="-32.3" font-family="verdana" font-size="14.00" fill="#000000">elem = PZN</text>
<polygon fill="none" stroke="yellow" points="2294,-4.5 2294,-25.5 2371,-25.5 2371,-4.5 2294,-4.5"/>
<text text-anchor="start" x="2297" y="-11.3" font-family="verdana" font-size="14.00" fill="#000000">prev = &#45;1 </text>
<polygon fill="none" stroke="yellow" points="2371,-4.5 2371,-25.5 2447,-25.5 2447,-4.5 2371,-4.5"/>
<text text-anchor="start" x="2374" y="-11.3" font-family="verdana" font-size="14.00" fill="#000000">next = 14</text>
<polygon fill="none" stroke="yellow" points="2292.5,-4 2292.5,-69 2447.5,-69 2447.5,-4 2292.5,-4"/>
</g>
<!-- elem_12&#45;&gt;elem_13 -->
<!-- elem_12&#45;&gt;elem_13 -->
<g id="edge36" class="edge">
<title>elem_12&#45;&gt;elem_13</title>
<path fill="none" stroke="yellow" d="M2266.65,-24C2266.65,-24 2274.28,-24 2274.28,-24"/>
<polygon fill="yellow" stroke="yellow" points="2274.28,-27.5 2284.28,-24 2274.28,-20.5 2274.28,-27.5"/>
</g>
<!-- elem_14 -->
<g id="node15" class="node">
<title>elem_14</title>
<polygon fill="#6e7681" stroke="transparent" points="2644.5,-73 2473.5,-73 2473.5,0 2644.5,0 2644.5,-73"/>
<polygon fill="none" stroke="yellow" points="2483,-46.5 2483,-67.5 2636,-67.5 2636,-46.5 2483,-46.5"/>
<text text-anchor="start" x="2508" y="-53.3" font-family="verdana" font-size="14.00" fill="#000000">phys idx = 14 </text>
<polygon fill="none" stroke="yellow" points="2483,-25.5 2483,-46.5 2636,-46.5 2636,-25.5 2483,-25.5"/>
<text text-anchor="start" x="2517.5" y="-32.3" font-family="verdana" font-size="14.00" fill="#000000">elem = PZN</text>
<polygon fill="none" stroke="yellow" points="2483,-4.5 2483,-25.5 2560,-25.5 2560,-4.5 2483,-4.5"/>
<text text-anchor="start" x="2486" y="-11.3" font-family="verdana" font-size="14.00" fill="#000000">prev = &#45;1 </text>
<polygon fill="none" stroke="yellow" points="2560,-4.5 2560,-25.5 2636,-25.5 2636,-4.5 2560,-4.5"/>
<text text-anchor="start" x="2563" y="-11.3" font-family="verdana" font-size="14.00" fill="#000000">next = 15</text>
<polygon fill="none" stroke="yellow" points="2481.5,-4 2481.5,-69 2636.5,-69 2636.5,-4 2481.5,-4"/>
</g>
<!-- elem_13&#45;&gt;elem_14 -->
<!-- elem_13&#45;&gt;elem_14 -->
<g id="edge37" class="edge">
<title>elem_13&#45;&gt;elem_14</title>
<path fill="none" stroke="yellow" d="M2455.65,-24C2455.65,-24 2463.28,-24 2463.28,-24"/>
<polygon fill="yellow" stroke="yellow" points="2463.28,-27.5 2473.28,-24 2463.28,-20.5 2463.28,-27.5"/>
</g>
<!-- elem_15 -->
<g id="node16" class="node">
<title>elem_15</title>
<polygon fill="#6e7681" stroke="transparent" points="2833.5,-73 2662.5,-73 2662.5,0 2833.5,0 2833.5,-73"/>
<polygon fill="none" stroke="yellow" points="2672,-46.5 2672,-67.5 2825,-67.5 2825,-46.5 2672,-46.5"/>
<text text-anchor="start" x="2697" y="-53.3" font-family="verdana" font-size="14.00" fill="#000000">phys idx = 15 </text>
<polygon fill="none" stroke="yellow" points="2672,-25.5 2672,-46.5 2825,-46.5 2825,-25.5 2672,-25.5"/>
<text text-anchor="start" x="2706.5" y="-32.3" font-family="verdana" font-size="14.00" fill="#000000">elem = PZN</text>
<polygon fill="none" stroke="yellow" points="2672,-4.5 2672,-25.5 2749,-25.5 2749,-4.5 2672,-4.5"/>
<text text-anchor="start" x="2675" y="-11.3" font-family="verdana" font-size="14.00" fill="#000000">prev = &#45;1 </text>
<polygon fill="none" stroke="yellow" points="2749,-4.5 2749,-25.5 2825,-25.5 2825,-4.5 2749,-4.5"/>
<text text-anchor="start" x="2752" y="-11.3" font-family="verdana" font-size="14.00" fill="#000000">next = 16</text>
<polygon fill="none" stroke="yellow" points="2670.5,-4 2670.5,-69 2825.5,-69 2825.5,-4 2670.5,-4"/>
</g>
<!-- elem_14&#45;&gt;elem_15 -->
<!-- elem_14&#45;&gt;elem_15 -->
<g id="edge38" class="edge">
<title>elem_14&#45;&gt;elem_15</title>
<path fill="none" stroke="yellow" d="M2644.65,-24C2644.65,-24 2652.28,-24 2652.28,-24"/>
<polygon fill="yellow" stroke="yellow" points="2652.28,-27.5 2662.28,-24 2652.28,-20.5 2652.28,-27.5"/>
</g>
<!-- elem_16 -->
<g id="node17" class="node">
<title>elem_16</title>
<polygon fill="#6e7681" stroke="transparent" points="3014,-73 2852,-73 2852,0 3014,0 3014,-73"/>
<polygon fill="none" stroke="yellow" points="2861,-46.5 2861,-67.5 3005,-67.5 3005,-46.5 2861,-46.5"/>
<text text-anchor="start" x="2881.5" y="-53.3" font-family="verdana" font-size="14.00" fill="#000000">phys idx = 16 </text>
<polygon fill="none" stroke="yellow" points="2861,-25.5 2861,-46.5 3005,-46.5 3005,-25.5 2861,-25.5"/>
<text text-anchor="start" x="2891" y="-32.3" font-family="verdana" font-size="14.00" fill="#000000">elem = PZN</text>
<polygon fill="none" stroke="yellow" points="2861,-4.5 2861,-25.5 2938,-25.5 2938,-4.5 2861,-4.5"/>
<text text-anchor="start" x="2864" y="-11.3" font-family="verdana" font-size="14.00" fill="#000000">prev = &#45;1 </text>
<polygon fill="none" stroke="yellow" points="2938,-4.5 2938,-25.5 3005,-25.5 3005,-4.5 2938,-4.5"/>
<text text-anchor="start" x="2941" y="-11.3" font-family="verdana" font-size="14.00" fill="#000000">next = 0</text>
<polygon fill="none" stroke="yellow" points="2860,-4 2860,-69 3006,-69 3006,-4 2860,-4"/>
</g>
<!-- elem_15&#45;&gt;elem_16 -->
<!-- elem_15&#45;&gt;elem_16 -->
<g id="edge39" class="edge">
<title>elem_15&#45;&gt;elem_16</title>
<path fill="none" stroke="yellow" d="M2833.73,-24C2833.73,-24 2841.89,-24 2841.89,-24"/>
<polygon fill="yellow" stroke="yellow" points="2841.89,-27.5 2851.89,-24 2841.89,-20.5 2841.89,-27.5"/>
</g>
<!-- head -->
<g id="node18" class="node">
<title>head</title>
<polygon fill="#7293ba" stroke="yellow" points="243,-145 187,-145 187,-109 243,-109 243,-145"/>
<text text-anchor="middle" x="215" y="-123.3" font-family="verdana" font-size="14.00" fill="#000000">HEAD</text>
</g>
<!-- head&#45;&gt;elem_1 -->
<g id="edge40" class="edge">
<title>head&#45;&gt;elem_1</title>
<path fill="none" stroke="yellow" d="M215,-108.69C215,-108.69 215,-83.11 215,-83.11"/>
<polygon fill="yellow" stroke="yellow" points="218.5,-83.11 215,-73.11 211.5,-83.11 218.5,-83.11"/>
</g>
<!-- tail -->
<g id="node19" class="node">
<title>tail</title>
<polygon fill="#7293ba" stroke="yellow" points="1302,-145 1248,-145 1248,-109 1302,-109 1302,-145"/>
<text text-anchor="middle" x="1275" y="-123.3" font-family="verdana" font-size="14.00" fill="#000000">TAIL</text>
</g>
<!-- tail&#45;&gt;elem_7 -->
<g id="edge41" class="edge">
<title>tail&#45;&gt;elem_7</title>
<path fill="none" stroke="yellow" d="M1275,-108.69C1275,-108.69 1275,-83.11 1275,-83.11"/>
<polygon fill="yellow" stroke="yellow" points="1278.5,-83.11 1275,-73.11 1271.5,-83.11 1278.5,-83.11"/>
</g>
<!-- free_head -->
<g id="node20" class="node">
<title>free_head</title>
<polygon fill="#7293ba" stroke="yellow" points="2041.5,-145 1942.5,-145 1942.5,-109 2041.5,-109 2041.5,-145"/>
<text text-anchor="middle" x="1992" y="-123.3" font-family="verdana" font-size="14.00" fill="#000000">FREE_HEAD</text>
</g>
<!-- free_head&#45;&gt;elem_11 -->
<g id="edge42" class="edge">
<title>free_head&#45;&gt;elem_11</title>
<path fill="none" stroke="yellow" d="M1992,-108.69C1992,-108.69 1992,-83.11 1992,-83.11"/>
<polygon fill="yellow" stroke="yellow" points="1995.5,-83.11 1992,-73.11 1988.5,-83.11 1995.5,-83.11"/>
</g>
</g>
</svg>
